<?xml version="1.0" encoding="UTF-8" standalone="no"?><!-- Created with Inkscape (http://www.inkscape.org/) -->

<svg width="360" height="640" viewBox="0 0 360 640.00002" version="1.1" id="svg5462"
    inkscape:version="1.4 (e7c3feb100, 2024-10-09)" sodipodi:docname="about.svg"
    xml:space="preserve" xmlns:inkscape="http://www.inkscape.org/namespaces/inkscape"
    xmlns:sodipodi="http://sodipodi.sourceforge.net/DTD/sodipodi-0.dtd"
    xmlns="http://www.w3.org/2000/svg" xmlns:svg="http://www.w3.org/2000/svg"
    xmlns:rdf="http://www.w3.org/1999/02/22-rdf-syntax-ns#"
    xmlns:cc="http://creativecommons.org/ns#" xmlns:dc="http://purl.org/dc/elements/1.1/"><defs
     id="defs5456"><rect
       x="-330.35233"
       y="-291.63917"
       width="654.25248"
       height="113.55861"
       id="rect106" /><rect x="-175.49968" y="-285.18698" width="378.09857" height="198.72758"
    id="rect104" /><rect x="55.282553" y="134.17237" width="145.152" height="31.52799"
    id="rect1588" /><rect x="55.282553" y="134.17237" width="145.152" height="31.52799"
    id="rect2135" /><rect x="55.282553" y="134.17237" width="145.152" height="31.52799"
    id="rect2267" /><rect x="55.282553" y="134.17237" width="145.152" height="31.52799"
    id="rect2379" /><rect x="55.282553" y="134.17237" width="145.152" height="31.52799"
    id="rect2481" /><rect x="55.282553" y="134.17237" width="145.152" height="31.52799"
    id="rect2483" /><rect x="55.282553" y="134.17237" width="145.152" height="31.52799"
    id="rect2485" /><rect x="55.282553" y="134.17237" width="145.152" height="31.52799"
    id="rect2487" /><rect x="55.282553" y="134.17237" width="145.152" height="31.52799"
    id="rect2597" /><rect x="55.282553" y="134.17237" width="145.152" height="31.52799"
    id="rect2657" /><rect x="55.282553" y="134.17237" width="145.152" height="31.52799"
    id="rect2665" /><rect x="55.282553" y="134.17237" width="145.152" height="31.52799"
    id="rect2710" /><rect x="55.282553" y="134.17237" width="145.152" height="31.52799"
    id="rect2720" /><rect x="55.282553" y="134.17237" width="145.152" height="31.52799"
    id="rect2730" /><rect x="55.282553" y="134.17237" width="145.152" height="31.52799"
    id="rect2736" /><rect x="55.282553" y="134.17237" width="145.152" height="31.52799"
    id="rect2746" /><rect x="55.282553" y="134.17237" width="145.152" height="31.52799"
    id="rect2756" /><rect x="55.282553" y="134.17237" width="145.152" height="31.52799"
    id="rect2766" /><rect x="55.282553" y="134.17237" width="145.152" height="31.52799"
    id="rect2776" /><rect x="55.282553" y="134.17237" width="145.152" height="31.52799"
    id="rect3234" /><rect x="55.282553" y="134.17237" width="145.152" height="31.52799"
    id="rect3236" /><rect x="55.282553" y="134.17237" width="145.152" height="31.52799"
    id="rect3238" /><rect x="55.282553" y="134.17237" width="145.152" height="31.52799"
    id="rect3240" /><rect x="55.282553" y="134.17237" width="145.152" height="31.52799"
    id="rect3242" /><rect x="55.282553" y="134.17237" width="145.152" height="31.52799"
    id="rect3244" /><rect x="55.282553" y="134.17237" width="145.152" height="31.52799"
    id="rect3246" /><rect x="55.282553" y="134.17237" width="145.152" height="31.52799"
    id="rect3248" /><rect x="55.282553" y="134.17237" width="145.152" height="31.52799"
    id="rect3250" /><rect x="55.282553" y="134.17237" width="145.152" height="31.52799"
    id="rect3252" /><rect x="55.282553" y="134.17237" width="145.152" height="31.52799"
    id="rect3254" /><rect x="55.282553" y="134.17237" width="145.152" height="31.52799"
    id="rect3256" /><rect x="55.282553" y="134.17237" width="145.152" height="31.52799"
    id="rect3258" /><rect x="55.282553" y="134.17237" width="145.152" height="31.52799"
    id="rect3318" /><rect x="55.282553" y="134.17237" width="145.152" height="31.52799"
    id="rect3320" /><rect x="55.282553" y="134.17237" width="145.152" height="31.52799"
    id="rect3322" /><rect x="55.282553" y="134.17237" width="145.152" height="31.52799"
    id="rect3324" /><rect x="55.282553" y="134.17237" width="145.152" height="31.52799"
    id="rect3326" /><rect x="55.282553" y="134.17237" width="145.152" height="31.52799"
    id="rect3328" /><rect x="55.282553" y="134.17237" width="145.152" height="31.52799"
    id="rect3330" /><rect x="55.282553" y="134.17237" width="145.152" height="31.52799"
    id="rect3368" /><rect x="55.282553" y="134.17237" width="145.152" height="31.52799"
    id="rect3370" /><rect x="55.282553" y="134.17237" width="145.152" height="31.52799"
    id="rect3372" /><rect x="55.282553" y="134.17237" width="145.152" height="31.52799"
    id="rect3374" /><rect x="55.282553" y="134.17237" width="145.152" height="31.52799"
    id="rect698" /><rect x="55.282553" y="134.17237" width="145.152" height="31.52799"
    id="rect700" /><rect x="55.282553" y="134.17237" width="145.152" height="31.52799"
    id="rect702" /><rect x="55.282553" y="134.17237" width="145.152" height="31.52799"
    id="rect704" /><rect x="55.282553" y="134.17237" width="145.152" height="31.52799"
    id="rect706" /><rect x="55.282553" y="134.17237" width="145.152" height="31.52799"
    id="rect708" /><rect x="55.282553" y="134.17237" width="145.152" height="31.52799"
    id="rect710" /><rect x="55.282553" y="134.17237" width="145.152" height="31.52799"
    id="rect712" /><rect x="55.282553" y="134.17237" width="145.152" height="31.52799"
    id="rect714" /><rect x="55.282553" y="134.17237" width="145.152" height="31.52799"
    id="rect716" /><rect x="55.282553" y="134.17237" width="145.152" height="31.52799"
    id="rect718" /><rect x="55.282553" y="134.17237" width="145.152" height="31.52799"
    id="rect720" /><rect x="55.282553" y="134.17237" width="145.152" height="31.52799"
    id="rect722" /><rect x="55.282553" y="134.17237" width="145.152" height="31.52799"
    id="rect724" /><rect x="55.282553" y="134.17237" width="145.152" height="31.52799"
    id="rect726" /><rect x="55.282553" y="134.17237" width="145.152" height="31.52799"
    id="rect728" /><rect x="55.282553" y="134.17237" width="145.152" height="31.52799"
    id="rect730" /><rect x="55.282553" y="134.17237" width="145.152" height="31.52799"
    id="rect732" /><rect x="55.282553" y="134.17237" width="145.152" height="31.52799"
    id="rect734" /><rect x="55.282553" y="134.17237" width="145.152" height="31.52799"
    id="rect736" /><rect x="55.282553" y="134.17237" width="145.152" height="31.52799"
    id="rect738" /><rect x="55.282553" y="134.17237" width="145.152" height="31.52799"
    id="rect740" /><rect x="55.282553" y="134.17237" width="145.152" height="31.52799"
    id="rect742" /><rect x="55.282553" y="134.17237" width="145.152" height="31.52799"
    id="rect744" /><rect x="55.282553" y="134.17237" width="145.152" height="31.52799"
    id="rect746" /><rect x="55.282553" y="134.17237" width="145.152" height="31.52799"
    id="rect748" /><rect x="55.282553" y="134.17237" width="145.152" height="31.52799"
    id="rect750" /><rect x="55.282553" y="134.17237" width="145.152" height="31.52799"
    id="rect752" /><rect x="55.282553" y="134.17237" width="145.152" height="31.52799"
    id="rect754" /><rect x="55.282553" y="134.17237" width="145.152" height="31.52799"
    id="rect756" /><rect x="55.282553" y="134.17237" width="145.152" height="31.52799"
    id="rect758" /><rect x="55.282553" y="134.17237" width="145.152" height="31.52799"
    id="rect760" /><rect x="55.282555" y="134.17236" width="145.15199" height="31.52799"
    id="rect1588-6" /><rect x="55.282555" y="134.17236" width="145.15199" height="31.52799"
    id="rect1588-5" /><rect x="55.282555" y="134.17236" width="145.15199" height="31.52799"
    id="rect1588-1" /><rect x="55.282553" y="134.17237" width="294.93855" height="38.538593"
    id="rect1623" /><rect x="55.282553" y="134.17237" width="294.93855" height="38.538593"
    id="rect1731" /><rect x="55.282553" y="134.17237" width="294.93855" height="38.538593"
    id="rect3547" /><rect x="55.282553" y="134.17237" width="145.152" height="31.52799"
    id="rect5554" /><rect x="55.282553" y="134.17237" width="145.152" height="31.52799"
    id="rect5556" /><rect x="55.282553" y="134.17237" width="145.152" height="31.52799"
    id="rect5558" /><rect x="55.282553" y="134.17237" width="145.152" height="31.52799"
    id="rect5560" /><rect x="55.282555" y="134.17236" width="145.15199" height="31.52799"
    id="rect5562" /><rect x="55.282553" y="134.17237" width="294.93855" height="38.538593"
    id="rect5564" /><rect x="55.282553" y="134.17237" width="294.93855" height="38.538593"
    id="rect5566" /><rect x="55.282553" y="134.17237" width="294.93855" height="38.538593"
    id="rect5568" /><rect x="55.282553" y="134.17237" width="145.152" height="31.52799"
    id="rect8194" /><rect x="55.282553" y="134.17237" width="145.152" height="31.52799"
    id="rect8196" /><rect x="55.282555" y="134.17236" width="145.15199" height="31.52799"
    id="rect8194-9" /><rect x="55.282555" y="134.17236" width="145.15199" height="31.52799"
    id="rect8352" /><rect x="55.282553" y="134.17237" width="271.27122" height="38.015488"
    id="rect8860" /><rect x="55.282553" y="134.17237" width="145.152" height="31.52799"
    id="rect9513" /><rect x="55.282553" y="134.17237" width="145.152" height="31.52799"
    id="rect9515" /><rect x="55.282553" y="134.17237" width="145.152" height="31.52799"
    id="rect9517" /><rect x="55.282553" y="134.17237" width="145.152" height="31.52799"
    id="rect9519" /><rect x="55.282553" y="134.17237" width="145.152" height="31.52799"
    id="rect9521" /><rect x="55.282553" y="134.17237" width="145.152" height="31.52799"
    id="rect9523" /><rect x="55.282553" y="134.17237" width="145.152" height="31.52799"
    id="rect9525" /><rect x="55.282553" y="134.17237" width="145.152" height="31.52799"
    id="rect9527" /><rect x="55.282553" y="134.17237" width="145.152" height="31.52799"
    id="rect9529" /><rect x="55.282553" y="134.17237" width="145.152" height="31.52799"
    id="rect9531" /><rect x="55.282555" y="134.17236" width="145.15199" height="31.52799"
    id="rect9533" /><rect x="55.282553" y="134.17237" width="282.95209" height="72.117663"
    id="rect9598" /><rect x="55.282555" y="134.17236" width="294.93854" height="38.538593"
    id="rect1731-6" /><rect x="55.282555" y="134.17236" width="294.93854" height="38.538593"
    id="rect1731-6-6" /><rect x="55.282553" y="134.17237" width="213.25475" height="30.122907"
    id="rect11044" /><rect x="55.282555" y="134.17236" width="294.93854" height="38.538593"
    id="rect11046" /><rect x="55.282553" y="134.17237" width="213.25475" height="30.122907"
    id="rect11066" /><rect x="55.282555" y="134.17236" width="294.93854" height="38.538593"
    id="rect11068" /><rect x="55.282553" y="134.17237" width="213.25475" height="30.122907"
    id="rect11088" /><rect x="55.282555" y="134.17236" width="294.93854" height="38.538593"
    id="rect11090" /><rect x="55.282555" y="134.17236" width="294.93854" height="38.538593"
    id="rect11090-1" /><rect x="55.282555" y="134.17236" width="294.93854" height="38.538593"
    id="rect12330" /><rect x="55.282555" y="134.17236" width="294.93854" height="38.538593"
    id="rect12444" /><rect x="55.282555" y="134.17236" width="294.93854" height="38.538593"
    id="rect13156" /><rect x="55.282555" y="134.17236" width="145.15199" height="31.52799"
    id="rect1588-5-2" /><rect x="55.282553" y="134.17237" width="213.25475" height="30.122907"
    id="rect18014" /><rect x="55.282555" y="134.17236" width="294.93854" height="38.538593"
    id="rect18016" /><rect x="55.282553" y="134.17237" width="213.25475" height="30.122907"
    id="rect18038" /><rect x="55.282555" y="134.17236" width="294.93854" height="38.538593"
    id="rect18040" /><rect x="55.282553" y="134.17237" width="213.25475" height="30.122907"
    id="rect18062" /><rect x="55.282555" y="134.17236" width="294.93854" height="38.538593"
    id="rect18064" /><rect x="55.282555" y="134.17236" width="294.93854" height="38.538593"
    id="rect20117" /><rect x="55.282555" y="134.17236" width="294.93854" height="38.538593"
    id="rect20119" /><rect x="55.282555" y="134.17236" width="294.93854" height="38.538593"
    id="rect20121" /><rect x="55.282555" y="134.17236" width="294.93854" height="38.538593"
    id="rect20123" /><rect x="55.282553" y="134.17237" width="213.25475" height="30.122907"
    id="rect20125" /><rect x="55.282555" y="134.17236" width="294.93854" height="38.538593"
    id="rect20127" /><rect x="55.282555" y="134.17236" width="145.15199" height="31.52799"
    id="rect20129" /><rect x="55.282553" y="134.17237" width="213.25475" height="30.122907"
    id="rect20131" /><rect x="55.282555" y="134.17236" width="294.93854" height="38.538593"
    id="rect20133" /><rect x="55.282553" y="134.17237" width="213.25475" height="30.122907"
    id="rect20135" /><rect x="55.282555" y="134.17236" width="294.93854" height="38.538593"
    id="rect20137" /><rect x="55.282553" y="134.17237" width="213.25475" height="30.122907"
    id="rect20139" /><rect x="55.282555" y="134.17236" width="294.93854" height="38.538593"
    id="rect20141" /><rect x="55.282553" y="134.17237" width="145.152" height="31.52799"
    id="rect20553" /><rect x="55.282553" y="134.17237" width="145.152" height="31.52799"
    id="rect20555" /><rect x="55.282553" y="134.17237" width="145.152" height="31.52799"
    id="rect20557" /><rect x="55.282553" y="134.17237" width="145.152" height="31.52799"
    id="rect20559" /><rect x="55.282553" y="134.17237" width="145.152" height="31.52799"
    id="rect20561" /><rect x="55.282553" y="134.17237" width="145.152" height="31.52799"
    id="rect20563" /><rect x="55.282553" y="134.17237" width="145.152" height="31.52799"
    id="rect20565" /><rect x="55.282553" y="134.17237" width="145.152" height="31.52799"
    id="rect20567" /><rect x="55.282553" y="134.17237" width="145.152" height="31.52799"
    id="rect20569" /><rect x="55.282553" y="134.17237" width="145.152" height="31.52799"
    id="rect20571" /><rect x="55.282553" y="134.17237" width="145.152" height="31.52799"
    id="rect20573" /><rect x="55.282553" y="134.17237" width="145.152" height="31.52799"
    id="rect20575" /><rect x="55.282555" y="134.17236" width="145.15199" height="31.52799"
    id="rect20577" /><rect x="55.282553" y="134.17237" width="145.152" height="31.52799"
    id="rect20579" /><rect x="55.282553" y="134.17237" width="145.152" height="31.52799"
    id="rect20581" /><rect x="55.282553" y="134.17237" width="145.152" height="31.52799"
    id="rect20583" /><rect x="55.282553" y="134.17237" width="145.152" height="31.52799"
    id="rect20585" /><rect x="55.282555" y="134.17236" width="145.15199" height="31.52799"
    id="rect20587" /><rect x="55.282553" y="134.17237" width="294.93855" height="38.538593"
    id="rect20589" /><rect x="55.282553" y="134.17237" width="294.93855" height="38.538593"
    id="rect20591" /><rect x="55.282553" y="134.17237" width="294.93855" height="38.538593"
    id="rect20593" /><rect x="55.282553" y="134.17237" width="145.152" height="31.52799"
    id="rect20595" /><rect x="55.282553" y="134.17237" width="145.152" height="31.52799"
    id="rect20597" /><rect x="55.282555" y="134.17236" width="145.15199" height="31.52799"
    id="rect20599" /><rect x="55.282553" y="134.17237" width="294.93855" height="38.538593"
    id="rect20601" /><rect x="55.282553" y="134.17237" width="294.93855" height="38.538593"
    id="rect20603" /><rect x="55.282553" y="134.17237" width="294.93855" height="38.538593"
    id="rect20605" /><rect x="55.282553" y="134.17237" width="145.152" height="31.52799"
    id="rect20607" /><rect x="55.282555" y="134.17236" width="145.15199" height="31.52799"
    id="rect20609" /><rect x="55.282555" y="134.17236" width="145.15199" height="31.52799"
    id="rect20611" /><rect x="55.282553" y="134.17237" width="271.27122" height="38.015488"
    id="rect20613" /><rect x="55.282555" y="134.17236" width="319.49575" height="30.210462"
    id="rect20589-5" /><rect x="55.282553" y="134.17237" width="281.41748" height="31.09025"
    id="rect26952" /><rect x="55.282555" y="134.17236" width="294.93854" height="38.538593"
    id="rect26954" /><rect x="55.282553" y="134.17237" width="282.95209" height="72.117663"
    id="rect27078" /><rect x="55.282555" y="134.17236" width="294.93854" height="38.538593"
    id="rect27080" /><rect x="55.282555" y="134.17236" width="294.93854" height="38.538593"
    id="rect27545" /><rect x="55.282553" y="134.17237" width="282.95209" height="72.117663"
    id="rect28037" /><rect x="55.282555" y="134.17236" width="294.93854" height="38.538593"
    id="rect28039" /><rect x="55.282555" y="134.17236" width="294.93854" height="38.538593"
    id="rect28041" /><rect x="55.282555" y="134.17236" width="294.93854" height="38.538593"
    id="rect28676" /><rect x="55.282553" y="134.17237" width="282.95209" height="72.117663"
    id="rect30023" /><rect x="55.282555" y="134.17236" width="294.93854" height="38.538593"
    id="rect30025" /><rect x="55.282555" y="134.17236" width="294.93854" height="38.538593"
    id="rect30027" /><rect x="55.282555" y="134.17236" width="294.93854" height="38.538593"
    id="rect30029" /><rect x="55.282555" y="134.17236" width="294.93854" height="38.538593"
    id="rect30523" /><rect x="55.282555" y="134.17236" width="294.93854" height="38.538593"
    id="rect33651" /><rect x="55.282555" y="134.17236" width="294.93854" height="38.538593"
    id="rect33653" /><rect x="55.282555" y="134.17236" width="294.93854" height="38.538593"
    id="rect33655" /><rect x="55.282555" y="134.17236" width="294.93854" height="38.538593"
    id="rect33657" /><rect x="55.282553" y="134.17237" width="282.95209" height="72.117663"
    id="rect33659" /><rect x="55.282555" y="134.17236" width="294.93854" height="38.538593"
    id="rect33661" /><rect x="55.282555" y="134.17236" width="294.93854" height="38.538593"
    id="rect33663" /><rect x="55.282555" y="134.17236" width="294.93854" height="38.538593"
    id="rect33665" /><rect x="55.282555" y="134.17236" width="145.15199" height="31.52799"
    id="rect33667" /><rect x="55.282553" y="134.17237" width="282.95209" height="72.117663"
    id="rect33669" /><rect x="55.282555" y="134.17236" width="294.93854" height="38.538593"
    id="rect33671" /><rect x="55.282555" y="134.17236" width="294.93854" height="38.538593"
    id="rect33673" /><rect x="55.282555" y="134.17236" width="294.93854" height="38.538593"
    id="rect33675" /><rect x="55.282555" y="134.17236" width="294.93854" height="38.538593"
    id="rect36324" /><rect x="55.282555" y="134.17236" width="294.93854" height="38.538593"
    id="rect36460" /><rect x="55.282555" y="134.17236" width="294.93854" height="38.538593"
    id="rect36462" /><rect x="55.282555" y="134.17236" width="294.93854" height="38.538593"
    id="rect3" /><rect x="55.282555" y="134.17236" width="294.93854" height="38.538593"
    id="rect68" /><rect x="55.282555" y="134.17236" width="294.93854" height="38.538593"
    id="rect70" /><rect x="55.282555" y="134.17236" width="294.93854" height="38.538593"
    id="rect72" /><rect x="55.282555" y="134.17236" width="294.93854" height="38.538593"
    id="rect74" /><rect x="55.282555" y="134.17236" width="294.93854" height="38.538593"
    id="rect76" /><rect x="-175.49968" y="-285.18698" width="378.09857" height="198.72758"
    id="rect105" /><rect x="-330.35233" y="-291.63917" width="292.92961" height="118.72037"
    id="rect107" /><rect x="-330.35233" y="-291.63917" width="654.25248" height="113.55861"
    id="rect114" /><rect x="-330.35233" y="-291.63917" width="654.25248" height="113.55861"
    id="rect144" /><rect x="-330.35233" y="-291.63917" width="654.25248" height="113.55861"
    id="rect145" /><rect x="55.282555" y="134.17236" width="294.93854" height="38.538593"
    id="rect709" /><rect x="55.282555" y="134.17236" width="294.93854" height="38.538593"
    id="rect711" /><rect x="55.282555" y="134.17236" width="294.93854" height="38.538593"
    id="rect713" /><rect x="55.282555" y="134.17236" width="294.93854" height="38.538593"
    id="rect715" /><rect x="55.282555" y="134.17236" width="294.93854" height="38.538593"
    id="rect717" /><rect x="55.282555" y="134.17236" width="294.93854" height="38.538593"
    id="rect719" /><rect x="-330.35233" y="-291.63917" width="654.25248" height="113.55861"
    id="rect721" /><rect x="-330.35233" y="-291.63917" width="654.25248" height="113.55861"
    id="rect723" /><rect x="55.282555" y="134.17236" width="294.93854" height="38.538593"
    id="rect729" /><rect x="55.282555" y="134.17236" width="294.93854" height="38.538593"
    id="rect733" /><rect x="55.282555" y="134.17236" width="294.93854" height="38.538593"
    id="rect735" /><rect x="55.282555" y="134.17236" width="294.93854" height="38.538593"
    id="rect739" /><rect x="55.282555" y="134.17236" width="294.93854" height="38.538593"
    id="rect743" /><rect x="55.282555" y="134.17236" width="294.93854" height="38.538593"
    id="rect747" /><rect x="55.282555" y="134.17236" width="294.93854" height="38.538593"
    id="rect753" /><rect x="55.282555" y="134.17236" width="294.93854" height="38.538593"
    id="rect759" /><rect x="55.282555" y="134.17236" width="338.81346" height="42.409909"
    id="rect762" /><rect x="55.282555" y="134.17236" width="338.81346" height="42.409909"
    id="rect764" /><rect x="55.282555" y="134.17236" width="294.93854" height="38.538593"
    id="rect779" /><rect x="55.282555" y="134.17236" width="294.93854" height="38.538593"
    id="rect780" /><rect x="55.282555" y="134.17236" width="294.93854" height="38.538593"
    id="rect781" /><rect x="55.282555" y="134.17236" width="294.93854" height="38.538593"
    id="rect782" /><rect x="55.282555" y="134.17236" width="294.93854" height="38.538593"
    id="rect783" /><rect x="55.282555" y="134.17236" width="294.93854" height="38.538593"
    id="rect784" /><rect x="55.282555" y="134.17236" width="294.93854" height="38.538593"
    id="rect785" /><rect x="55.282555" y="134.17236" width="294.93854" height="38.538593"
    id="rect786" /><rect x="55.282555" y="134.17236" width="294.93854" height="38.538593"
    id="rect787" /><rect x="55.282555" y="134.17236" width="294.93854" height="38.538593"
    id="rect788" /><rect x="55.282555" y="134.17236" width="294.93854" height="38.538593"
    id="rect789" /><rect x="55.282555" y="134.17236" width="294.93854" height="38.538593"
    id="rect790" /><rect x="55.282555" y="134.17236" width="338.81346" height="42.409909"
    id="rect791" /><rect x="55.282555" y="134.17236" width="338.81346" height="42.409909"
    id="rect792" /><rect x="55.282555" y="134.17236" width="31.460509" height="23.254586"
    id="rect800" /><rect x="55.282555" y="134.17236" width="66.221878" height="32.117404"
    id="rect800-7" /><rect x="55.282555" y="134.17236" width="294.93854" height="38.538593"
    id="rect802" /><rect x="55.282555" y="134.17236" width="294.93854" height="38.538593"
    id="rect803" /><rect x="55.282555" y="134.17236" width="294.93854" height="38.538593"
    id="rect805" /><rect x="55.282555" y="134.17236" width="294.93854" height="38.538593"
    id="rect806" /><rect x="55.282555" y="134.17236" width="31.460509" height="23.254586"
    id="rect808" /><rect x="55.282555" y="134.17236" width="47.26408" height="30.89432"
    id="rect809" /><rect x="55.282555" y="134.17236" width="31.460509" height="23.254586"
    id="rect811" /><rect x="55.282555" y="134.17236" width="66.221878" height="32.117404"
    id="rect812" /><rect x="55.282555" y="134.17236" width="35.110421" height="23.482706"
    id="rect814" /><rect x="55.282555" y="134.17236" width="66.221878" height="32.117404"
    id="rect815" /><rect x="55.282555" y="134.17236" width="31.460509" height="23.254586"
    id="rect817" /><rect x="55.282555" y="134.17236" width="66.221878" height="32.117404"
    id="rect818" /><rect x="55.282555" y="134.17236" width="31.460509" height="23.254586"
    id="rect820" /><rect x="55.282555" y="134.17236" width="66.221878" height="32.117404"
    id="rect821" /><rect x="55.282555" y="134.17236" width="31.460508" height="23.254585"
    id="rect817-5" /><rect x="55.282555" y="134.17236" width="31.460508" height="23.254585"
    id="rect822" /><rect x="55.282555" y="134.17236" width="31.460508" height="23.254585"
    id="rect824" /><rect x="55.282555" y="134.17236" width="294.93854" height="38.538593"
    id="rect829" /><rect x="55.282555" y="134.17236" width="294.93854" height="38.538593"
    id="rect830" /><rect x="55.282555" y="134.17236" width="294.93854" height="38.538593"
    id="rect831" /><rect x="55.282555" y="134.17236" width="294.93854" height="38.538593"
    id="rect832" /><rect x="55.282555" y="134.17236" width="294.93854" height="38.538593"
    id="rect836" /><rect x="55.282555" y="134.17236" width="294.93854" height="38.538593"
    id="rect838" /><rect x="55.282555" y="134.17236" width="31.460509" height="23.254586"
    id="rect862" /><rect x="55.282555" y="134.17236" width="66.221878" height="32.117404"
    id="rect863" /><rect x="55.282555" y="134.17236" width="31.460509" height="23.254586"
    id="rect864" /><rect x="55.282555" y="134.17236" width="66.221878" height="32.117404"
    id="rect865" /><rect x="55.282555" y="134.17236" width="35.110421" height="23.482706"
    id="rect866" /><rect x="55.282555" y="134.17236" width="66.221878" height="32.117404"
    id="rect867" /><rect x="55.282555" y="134.17236" width="31.460509" height="23.254586"
    id="rect868" /><rect x="55.282555" y="134.17236" width="66.221878" height="32.117404"
    id="rect869" /><rect x="55.282555" y="134.17236" width="31.460509" height="23.254586"
    id="rect870" /><rect x="55.282555" y="134.17236" width="66.221878" height="32.117404"
    id="rect871" /><rect x="55.282555" y="134.17236" width="31.460508" height="23.254585"
    id="rect872" /><rect x="55.282555" y="134.17236" width="31.460508" height="23.254585"
    id="rect873" /><rect x="55.282555" y="134.17236" width="31.460508" height="23.254585"
    id="rect874" /><rect x="55.282555" y="134.17236" width="294.93854" height="38.538593"
    id="rect875" /><rect x="55.282555" y="134.17236" width="294.93854" height="38.538593"
    id="rect876" /><rect x="55.282555" y="134.17236" width="294.93854" height="38.538593"
    id="rect877" /><rect x="55.282555" y="134.17236" width="294.93854" height="38.538593"
    id="rect878" /><rect x="55.282555" y="134.17236" width="294.93854" height="38.538593"
    id="rect895" /><rect x="55.282555" y="134.17236" width="294.93854" height="38.538593"
    id="rect896" /><rect x="55.282555" y="134.17236" width="294.93854" height="38.538593"
    id="rect897" /><rect x="55.282555" y="134.17236" width="294.93854" height="38.538593"
    id="rect898" /><rect x="55.282555" y="134.17236" width="294.93854" height="38.538593"
    id="rect899" /><rect x="-330.35233" y="-291.63917" width="654.25248" height="113.55861"
    id="rect900" /><rect x="-330.35233" y="-291.63917" width="654.25248" height="113.55861"
    id="rect901" /><rect x="55.282555" y="134.17236" width="294.93854" height="38.538593"
    id="rect902" /><rect x="55.282555" y="134.17236" width="294.93854" height="38.538593"
    id="rect875-4" /><rect x="55.282555" y="134.17236" width="294.93854" height="38.538593"
    id="rect903" /><rect x="55.282555" y="134.17236" width="465.27646" height="71.444782"
    id="rect878-8" /><rect x="55.282555" y="134.17236" width="465.27646" height="71.444782"
    id="rect905" /><rect x="55.282555" y="134.17236" width="465.27646" height="71.444778"
    id="rect905-3" /><rect x="55.282555" y="134.17236" width="465.27646" height="71.444778"
    id="rect907" /><rect x="55.282555" y="134.17236" width="322.37772" height="101.04659"
    id="rect908" /><rect x="55.282555" y="134.17236" width="294.93854" height="38.538593"
    id="rect875-4-2" /><rect x="55.282555" y="134.17236" width="294.93854" height="38.538593"
    id="rect30" /><rect x="55.282555" y="134.17236" width="465.27646" height="71.444782"
    id="rect31" /><rect x="-330.35233" y="-291.63917" width="654.25248" height="113.55861"
    id="rect32" /><rect x="-330.35233" y="-291.63917" width="654.25248" height="113.55861"
    id="rect33" /><rect x="55.282555" y="134.17236" width="465.27646" height="71.444778"
    id="rect34" /><rect x="55.282555" y="134.17236" width="465.27646" height="71.444778"
    id="rect35" /><rect x="55.282555" y="134.17236" width="322.37772" height="101.04659"
    id="rect36" /><rect x="55.282555" y="134.17236" width="465.27646" height="71.444778"
    id="rect38" /><rect x="55.282555" y="134.17236" width="294.93854" height="38.538593"
    id="rect735-3" /><rect x="55.282555" y="134.17236" width="465.27646" height="71.444778"
    id="rect40" /><rect x="55.282555" y="134.17236" width="465.27646" height="71.444778"
    id="rect53" /><rect x="55.282555" y="134.17236" width="322.37772" height="101.04659"
    id="rect54" /><rect x="55.282555" y="134.17236" width="465.27646" height="71.444778"
    id="rect55" /><rect x="55.282555" y="134.17236" width="294.93854" height="38.538593"
    id="rect56" /><rect x="55.282555" y="134.17236" width="465.27646" height="71.444778"
    id="rect57" /><rect x="55.282555" y="134.17236" width="465.27646" height="71.444778"
    id="rect61" /><rect x="55.282555" y="134.17236" width="465.27646" height="71.444778"
    id="rect62" /><rect x="55.282555" y="134.17236" width="465.27646" height="71.444778"
    id="rect63" /><rect x="55.282555" y="134.17236" width="465.27646" height="71.444778"
    id="rect65" /><rect x="55.282555" y="134.17236" width="465.27646" height="71.444778"
    id="rect67" /><rect x="55.282555" y="134.17236" width="465.27646" height="71.444778"
    id="rect77" /><rect x="55.282555" y="134.17236" width="294.93854" height="38.538593"
    id="rect484" /><rect x="55.282555" y="134.17236" width="294.93854" height="38.538593"
    id="rect486" /><rect x="55.282555" y="134.17236" width="294.93854" height="38.538593"
    id="rect488" /><rect x="55.282555" y="134.17236" width="35.110421" height="23.482706"
    id="rect25" /><rect x="55.282555" y="134.17236" width="63.420019" height="33.518334"
    id="rect26" /><rect x="55.282555" y="134.17236" width="35.110421" height="23.482706"
    id="rect29" /><rect x="55.282555" y="134.17236" width="63.420019" height="33.518334"
    id="rect42" /><rect x="55.282555" y="134.17236" width="35.110421" height="23.482706"
    id="rect81" /><rect x="55.282555" y="134.17236" width="63.420019" height="33.518334"
    id="rect82" /><rect x="55.282555" y="134.17236" width="35.110421" height="23.482706"
    id="rect86" /><rect x="55.282555" y="134.17236" width="63.420019" height="33.518334"
    id="rect87" /><rect x="55.282555" y="134.17236" width="35.110421" height="23.482706"
    id="rect254" /><rect x="55.282555" y="134.17236" width="63.420019" height="33.518334"
    id="rect255" /><rect x="55.282555" y="134.17236" width="35.110421" height="23.482706"
    id="rect258" /><rect x="55.282555" y="134.17236" width="63.420019" height="33.518334"
    id="rect259" /><rect x="55.282555" y="134.17236" width="35.110421" height="23.482706"
    id="rect479" /><rect x="55.282555" y="134.17236" width="63.420019" height="33.518334"
    id="rect480" /></defs>
    <sodipodi:namedview id="base" pagecolor="#ffffff" bordercolor="#000000" borderopacity="0.30"
        inkscape:pageopacity="0.0" inkscape:pageshadow="2" inkscape:zoom="0.90451534"
        inkscape:cx="206.74055" inkscape:cy="280.26059" inkscape:document-units="px"
        inkscape:current-layer="layer2" inkscape:showpageshadow="2" inkscape:pagecheckerboard="0"
        inkscape:deskcolor="#d1d1d1" showgrid="false" inkscape:window-width="1138"
        inkscape:window-height="997" inkscape:window-x="0" inkscape:window-y="3"
        inkscape:window-maximized="0" showguides="true" />
    <metadata id="metadata5459"><rdf:RDF><cc:Work
         rdf:about=""><dc:format>image/svg+xml</dc:format><dc:type
        rdf:resource="http://purl.org/dc/dcmitype/StillImage" /></cc:Work></rdf:RDF></metadata>
    <g inkscape:groupmode="layer" id="layer2" inkscape:label="bk"><g
       id="g1"
       transform="translate(-1.8626529,35.229701)"><g
         id="g860-0"
         transform="translate(-887.75708,132.2003)"><rect
           style="fill:#afc6f5;fill-opacity:1;stroke-width:4.99029;stroke-linecap:round;stroke-linejoin:round"
           id="rect860-3"
           width="331.17529"
           height="35.60561"
           x="904.0321"
           y="187.49342"
           ry="0" /><text xml:space="preserve" id="text860-7"
        style="font-weight:bold;font-size:13.3833px;font-family:Quicksand;-inkscape-font-specification:'Quicksand Bold';white-space:pre;shape-inside:url(#rect878-8);display:inline;fill:#2a2837;fill-opacity:1;stroke:none;stroke-width:5;stroke-linecap:round;stroke-linejoin:round"
        transform="matrix(1.2951486,0,0,1.2951486,696.50884,19.495361)" x="205.435" y="0"><tspan
             x="169.59291"
             y="146.59495"
             id="tspan2"><tspan
               style="font-family:'Jersey 25';-inkscape-font-specification:'Jersey 25 Bold';text-align:center;text-anchor:middle"
               id="tspan1">github.com/pomboverso/chip-defense-copper</tspan></tspan></text></g><g
        id="g910" transform="translate(-1698.9356,5.232132)"><text
           xml:space="preserve"
           id="text886"
           style="font-style:normal;font-variant:normal;font-weight:normal;font-stretch:normal;font-size:85.3333px;font-family:'Jersey 25';-inkscape-font-specification:'Jersey 25, ';text-align:center;writing-mode:lr-tb;direction:ltr;white-space:pre;shape-inside:url(#rect900);display:inline;fill:none;fill-opacity:1;stroke:#1d44b2;stroke-width:10.225;stroke-linecap:round;stroke-linejoin:round;stroke-dasharray:none;stroke-opacity:1;paint-order:normal"
           transform="matrix(0.73302561,0,0,0.76592337,1882.3999,344.05965)"><tspan
             x="-204.07104"
             y="-212.42786"
             id="tspan4"><tspan
               style="font-weight:bold;-inkscape-font-specification:'Jersey 25 Bold'"
               id="tspan3">ChipDefense</tspan></tspan></text>
        <text xml:space="preserve"
            style="font-style:normal;font-variant:normal;font-weight:normal;font-stretch:normal;font-size:35.2342px;font-family:'Jersey 25';-inkscape-font-specification:'Jersey 25, ';text-align:center;writing-mode:lr-tb;direction:ltr;text-anchor:middle;fill:none;fill-opacity:1;stroke:#b26f1d;stroke-width:2.27086;stroke-linecap:round;stroke-linejoin:round;stroke-dasharray:none;stroke-opacity:1"
            x="1963.4271" y="143.7995" id="text887" transform="scale(1.0050737,0.99495192)"><tspan
             sodipodi:role="line"
             id="tspan887"
             x="1963.4271"
             y="143.7995"
             style="fill:none;fill-opacity:1;stroke:#b26f1d;stroke-width:2.27086;stroke-dasharray:none;stroke-opacity:1">COPPER</tspan></text>
        <text xml:space="preserve" id="text890"
            style="font-style:normal;font-variant:normal;font-weight:normal;font-stretch:normal;font-size:85.3333px;font-family:'Jersey 25';-inkscape-font-specification:'Jersey 25, ';text-align:center;writing-mode:lr-tb;direction:ltr;white-space:pre;shape-inside:url(#rect901);display:inline;fill:#d97126;fill-opacity:1;stroke:none;stroke-width:3.825;stroke-linecap:round;stroke-linejoin:round;stroke-dasharray:none;stroke-opacity:1"
            transform="matrix(0.73343566,0,0,0.73343566,1882.4008,334.99991)"><tspan
             x="-204.07104"
             y="-212.42786"
             id="tspan7"><tspan
               style="fill:#5c95ef"
               id="tspan5">Chip</tspan><tspan style="fill:#93b7dd" id="tspan6">Defense</tspan></tspan></text>
        <text xml:space="preserve"
            style="font-style:normal;font-variant:normal;font-weight:normal;font-stretch:normal;font-size:35.4091px;font-family:'Jersey 25';-inkscape-font-specification:'Jersey 25, ';text-align:center;writing-mode:lr-tb;direction:ltr;text-anchor:middle;fill:#dcbc81;fill-opacity:1;stroke:none;stroke-width:1.5872;stroke-linecap:round;stroke-linejoin:round;stroke-dasharray:none;stroke-opacity:1"
            x="1973.389" y="142.66794" id="text894"><tspan
             sodipodi:role="line"
             id="tspan894"
             x="1973.389"
             y="142.66794"
             style="fill:#dcbc81;fill-opacity:1;stroke-width:1.5872">C<tspan
            style="fill:#cd9a3c;fill-opacity:1;stroke-width:1.5872" id="tspan891">O</tspan>P<tspan
            style="fill:#cd9a3c;fill-opacity:1;stroke-width:1.5872" id="tspan892">P</tspan>E
            <tspan style="fill:#cd9a3c;fill-opacity:1;stroke-width:1.5872" id="tspan893">R</tspan></tspan></text></g><g
        id="g909" transform="translate(-1698.538,24.119145)"><rect
           style="fill:#afc6f5;fill-opacity:1;stroke-width:4.99029;stroke-linecap:round;stroke-linejoin:round"
           id="rect904"
           width="331.17529"
           height="35.60561"
           x="1714.813"
           y="339.79797"
           ry="0" />
        <text xml:space="preserve" id="text904"
            style="font-weight:bold;font-size:13.3833px;font-family:Quicksand;-inkscape-font-specification:'Quicksand Bold';white-space:pre;shape-inside:url(#rect905-3);display:inline;fill:#2a2837;fill-opacity:1;stroke:none;stroke-width:5;stroke-linecap:round;stroke-linejoin:round"
            transform="matrix(1.2951486,0,0,1.2951486,1507.2897,171.79991)" x="205.435" y="0"><tspan
             x="198.97089"
             y="146.59495"
             id="tspan9"><tspan
               style="font-family:'Jersey 25';-inkscape-font-specification:'Jersey 25 Bold';text-align:center;text-anchor:middle"
               id="tspan8">github.com/ochadenas/cpudefense</tspan></tspan></text></g><g id="g908"
        transform="translate(-1698.538,15.434549)"><rect
           style="fill:#3d385b;fill-opacity:1;stroke-width:4.99029;stroke-linecap:round;stroke-linejoin:round"
           id="rect906"
           width="331.17529"
           height="35.60561"
           x="1714.813"
           y="392.70596"
           ry="0" />
        <text xml:space="preserve" id="text907"
            style="font-weight:bold;font-size:13.3833px;font-family:Quicksand;-inkscape-font-specification:'Quicksand Bold';white-space:pre;shape-inside:url(#rect907);display:inline;fill:#bccdd5;fill-opacity:1;stroke:none;stroke-width:5;stroke-linecap:round;stroke-linejoin:round"
            transform="matrix(1.2951486,0,0,1.2951486,1507.2897,224.7079)" x="234.64406" y="0"><tspan
             x="266.37704"
             y="146.59495"
             id="tspan11"><tspan
               style="font-family:'Jersey 25';-inkscape-font-specification:'Jersey 25 Bold';text-align:center;text-anchor:middle"
               id="tspan10">GO BACK</tspan></tspan></text></g><text xml:space="preserve"
        id="text908"
        style="font-weight:bold;font-size:16px;font-family:Quicksand;-inkscape-font-specification:'Quicksand Bold';white-space:pre;shape-inside:url(#rect908);display:inline;fill:#afc6f5;fill-opacity:1;stroke:none;stroke-width:5;stroke-linecap:round;stroke-linejoin:round"
        transform="translate(-34.804169,85.54523)" x="62.000004" y="0"><tspan
           x="62.325333"
           y="149.02391"
           id="tspan13"><tspan
             style="font-family:'Jersey 25';-inkscape-font-specification:'Jersey 25 Bold';text-align:center;text-anchor:middle"
             id="tspan12">Chip defense is a casual game for Android devices </tspan></tspan>
        <tspan x="70.910736" y="169.31794" id="tspan15"><tspan
             style="font-family:'Jersey 25';-inkscape-font-specification:'Jersey 25 Bold';text-align:center;text-anchor:middle"
             id="tspan14">of the tower defense genre. It centres around a </tspan></tspan>
        <tspan x="58.032623" y="189.61198" id="tspan17"><tspan
             style="font-family:'Jersey 25';-inkscape-font-specification:'Jersey 25 Bold';text-align:center;text-anchor:middle"
             id="tspan16">design of electric circuits and logical chips, evoking </tspan></tspan>
        <tspan x="82.032684" y="209.90602" id="tspan19"><tspan
             style="font-family:'Jersey 25';-inkscape-font-specification:'Jersey 25 Bold';text-align:center;text-anchor:middle"
             id="tspan18">the good ol' days of 8 bit micro-processors.</tspan></tspan></text></g></g>
    <g inkscape:groupmode="layer" id="layer3" inkscape:label="content" />
    <g inkscape:label="ref" inkscape:groupmode="layer" id="layer1" /></svg>
